# This file uses centimeters as units for non-parametric coordinates.

mtllib wooden plank.mtl
g default
v -0.654972 -0.090978 0.039971
v 0.654972 -0.090978 0.039971
v -0.654972 0.090978 0.039971
v 0.654972 0.090978 0.039971
v -0.654972 0.090978 -0.039971
v 0.654972 0.090978 -0.039971
v -0.654972 -0.090978 -0.039971
v 0.654972 -0.090978 -0.039971
vt 0.010162 0.005915
vt 0.086917 0.005901
vt 0.010164 0.016576
vt 0.086919 0.016562
vt 0.010165 0.021261
vt 0.086920 0.021246
vt 0.010167 0.031922
vt 0.086922 0.031908
vt 0.010168 0.036606
vt 0.086923 0.036592
vt 0.091601 0.005900
vt 0.091603 0.016561
vt 0.005478 0.005916
vt 0.005480 0.016577
vn 0.000000 0.000000 1.000000
vn 0.000000 0.000000 1.000000
vn 0.000000 0.000000 1.000000
vn 0.000000 0.000000 1.000000
vn 0.000000 1.000000 0.000000
vn 0.000000 1.000000 0.000000
vn 0.000000 1.000000 0.000000
vn 0.000000 1.000000 0.000000
vn 0.000000 0.000000 -1.000000
vn 0.000000 0.000000 -1.000000
vn 0.000000 0.000000 -1.000000
vn 0.000000 0.000000 -1.000000
vn 0.000000 -1.000000 0.000000
vn 0.000000 -1.000000 0.000000
vn 0.000000 -1.000000 0.000000
vn 0.000000 -1.000000 0.000000
vn 1.000000 0.000000 0.000000
vn 1.000000 0.000000 0.000000
vn 1.000000 0.000000 0.000000
vn 1.000000 0.000000 0.000000
vn -1.000000 0.000000 0.000000
vn -1.000000 0.000000 0.000000
vn -1.000000 0.000000 0.000000
vn -1.000000 0.000000 0.000000
s off
g wooden_plank1
usemtl wooden_plank
f 1/1/1 2/2/2 4/4/3 3/3/4
f 3/3/5 4/4/6 6/6/7 5/5/8
f 5/5/9 6/6/10 8/8/11 7/7/12
f 7/7/13 8/8/14 2/10/15 1/9/16
f 2/2/17 8/11/18 6/12/19 4/4/20
f 7/13/21 1/1/22 3/3/23 5/14/24
