# This file uses centimeters as units for non-parametric coordinates.

mtllib Plant group 1.mtl
g default
v 0.325825 -0.017283 0.045076
v 0.406773 -0.017283 0.045076
v 0.292312 0.503775 -0.016151
v 0.440286 0.503775 -0.016151
v 0.292312 0.863898 0.009128
v 0.440286 0.863898 0.009128
v 0.360901 1.157834 0.289812
v 0.371697 1.157834 0.289812
v 0.320346 1.033689 0.104027
v 0.412252 1.033689 0.104027
vt 0.337782 0.020633
vt 0.373088 0.020633
vt 0.385119 0.251303
vt 0.320746 0.250497
vt 0.383035 0.408244
vt 0.318781 0.407614
vt 0.329895 0.492852
vt 0.369803 0.493243
vt 0.352509 0.590829
vt 0.347720 0.590829
vn 0.000000 0.116703 0.993167
vn 0.000000 0.116703 0.993167
vn 0.000000 0.026983 0.999636
vn 0.000000 0.026983 0.999636
vn 0.000000 -0.192515 0.981294
vn 0.000000 -0.192515 0.981294
vn 0.000000 -0.599431 0.800426
vn 0.000000 -0.599431 0.800426
vn 0.000000 -0.831454 0.555593
vn 0.000000 -0.831454 0.555593
s 1
g polySurface14 pCube18
usemtl lambert2SG
f 1/1/1 2/2/2 4/3/3 3/4/4
f 3/4/4 4/3/3 6/5/5 5/6/6
f 9/7/7 10/8/8 8/9/9 7/10/10
f 5/6/6 6/5/5 10/8/8 9/7/7
g default
v 0.501507 -0.017283 0.120996
v 0.549728 -0.017283 0.056056
v 0.518029 0.303801 0.197853
v 0.606179 0.307251 0.079141
v 0.577939 0.443142 0.250928
v 0.681107 0.459213 0.148303
v 0.887719 0.308951 0.404825
v 0.895246 0.310123 0.397338
v 0.734133 0.403627 0.350265
v 0.798211 0.413609 0.286525
vt 0.063592 0.028090
vt 0.101203 0.027804
vt 0.109399 0.181135
vt 0.040632 0.180080
vt 0.104914 0.266114
vt 0.037792 0.254748
vt 0.039917 0.342737
vt 0.081607 0.349796
vt 0.058253 0.430179
vt 0.053356 0.429349
vn 0.791380 -0.179890 0.584258
vn 0.791380 -0.179890 0.584258
vn 0.752851 -0.327134 0.571138
vn 0.750379 -0.334545 0.570097
vn 0.381326 -0.901493 0.204699
vn 0.427902 -0.867595 0.253337
vn -0.148016 -0.943479 -0.296544
vn -0.157661 -0.939034 -0.305545
vn -0.337636 -0.817049 -0.467367
vn -0.337636 -0.817049 -0.467368
s 1
g pCube18 polySurface17
usemtl lambert2SG
f 11/11/11 12/12/12 14/13/13 13/14/14
f 13/14/14 14/13/13 16/15/15 15/16/16
f 19/17/17 20/18/18 18/19/19 17/20/20
f 15/16/16 16/15/15 20/18/18 19/17/17
g default
v 0.821807 -0.017283 -0.053480
v 0.771211 -0.017283 -0.141770
v 0.974712 0.244990 -0.103042
v 0.971021 0.245761 -0.109483
v 0.877545 0.108308 -0.072852
v 0.846119 0.114889 -0.127689
vt 0.757089 0.092270
vt 0.791465 0.094923
vt 0.749776 0.184335
vt 0.745738 0.184025
vt 0.761714 0.017122
vt 0.816918 0.016149
vn 0.750126 -0.468931 -0.466277
vn 0.759191 -0.453387 -0.466979
vn 0.674591 -0.580340 -0.456216
vn 0.674591 -0.580340 -0.456216
vn 0.784272 -0.407115 -0.468161
vn 0.784272 -0.407115 -0.468161
s 1
g pCube18 polySurface2
usemtl lambert2SG
f 25/21/21 26/22/22 24/23/23 23/24/24
f 21/25/25 22/26/26 26/22/22 25/21/21
g default
v 0.505539 -0.017283 -0.431782
v 0.455781 -0.017283 -0.406822
v 0.535405 0.325255 -0.508483
v 0.444447 0.335851 -0.462856
v 0.538886 0.544008 -0.622397
v 0.447928 0.554603 -0.576770
v 0.497872 0.783037 -0.777813
v 0.491236 0.783808 -0.774484
v 0.522632 0.646354 -0.679122
v 0.466138 0.652935 -0.650783
vt 0.467638 0.018800
vt 0.490948 0.019227
vt 0.481931 0.168778
vt 0.439394 0.163615
vt 0.456595 0.268928
vt 0.414058 0.263765
vt 0.407993 0.312870
vt 0.434413 0.316077
vt 0.399245 0.383620
vt 0.396141 0.383244
vn -0.452254 -0.155520 -0.878226
vn -0.452254 -0.155520 -0.878226
vn -0.453780 -0.274250 -0.847863
vn -0.453577 -0.285022 -0.844411
vn -0.444826 -0.425938 -0.787850
vn -0.444077 -0.432054 -0.784936
vn -0.429724 -0.524788 -0.734802
vn -0.431526 -0.514970 -0.740669
vn -0.418142 -0.580340 -0.698830
vn -0.418142 -0.580340 -0.698830
s 1
g pCube18 polySurface9
usemtl lambert2SG
f 27/27/27 28/28/28 30/29/29 29/30/30
f 29/30/30 30/29/29 32/31/31 31/32/32
f 35/33/33 36/34/34 34/35/35 33/36/36
f 31/32/32 32/31/31 36/34/34 35/33/33
g default
v 0.667076 -0.017283 -0.077349
v 0.687274 -0.017283 -0.021645
v 0.700847 0.371591 -0.115689
v 0.737770 0.371591 -0.013861
v 0.683452 0.635198 -0.109381
v 0.720374 0.635198 -0.007553
v 0.507414 0.850356 0.007855
v 0.510108 0.850356 0.015284
v 0.625142 0.759483 -0.066410
v 0.648075 0.759483 -0.003165
vt 0.337782 0.020633
vt 0.373088 0.020633
vt 0.385119 0.251303
vt 0.320746 0.250497
vt 0.383035 0.408244
vt 0.318781 0.407614
vt 0.329895 0.492852
vt 0.369803 0.493243
vt 0.352509 0.590829
vt 0.347720 0.590829
vn -0.933924 0.114493 0.338640
vn -0.933924 0.114493 0.338640
vn -0.939770 0.026749 0.340760
vn -0.939770 0.026749 0.340760
vn -0.922521 -0.192515 0.334505
vn -0.922521 -0.192515 0.334505
vn -0.752486 -0.599431 0.272850
vn -0.752486 -0.599431 0.272850
vn -0.522317 -0.831454 0.189390
vn -0.522317 -0.831454 0.189390
s 1
g pCube18 polySurface8
usemtl lambert2SG
f 37/37/37 38/38/38 40/39/39 39/40/40
f 39/40/40 40/39/39 42/41/41 41/42/42
f 45/43/43 46/44/44 44/45/45 43/46/46
f 41/42/42 42/41/41 46/44/44 45/43/43
g default
v 0.021642 -0.017283 -0.322616
v 0.087852 -0.017283 -0.245341
v -0.119302 0.244990 -0.245344
v -0.114471 0.245761 -0.239706
v -0.029491 0.108308 -0.293166
v 0.011632 0.114889 -0.245170
vt 0.757089 0.092270
vt 0.791465 0.094923
vt 0.749776 0.184335
vt 0.745738 0.184025
vt 0.761714 0.017122
vt 0.816918 0.016149
vn -0.649736 -0.468931 0.598287
vn -0.658510 -0.453386 0.600671
vn -0.577412 -0.580340 0.574283
vn -0.577412 -0.580340 0.574283
vn -0.682928 -0.407114 0.606521
vn -0.682928 -0.407114 0.606521
s 1
g pCube18 polySurface1
usemtl lambert2SG
f 51/47/47 52/48/48 50/49/49 49/50/50
f 47/51/51 48/52/52 52/48/48 51/47/47
g default
v 0.421265 -0.017283 -0.152744
v 0.353511 -0.017283 -0.108564
v 0.432430 0.401191 -0.230560
v 0.308574 0.405787 -0.149797
v 0.394652 0.586812 -0.301121
v 0.262289 0.608221 -0.240657
v 0.157492 0.408050 -0.552921
v 0.147835 0.409614 -0.548510
v 0.282614 0.534172 -0.448472
v 0.200404 0.547469 -0.410918
vt 0.627736 0.022042
vt 0.659092 0.021182
vt 0.669497 0.186617
vt 0.612129 0.186426
vt 0.667642 0.274499
vt 0.611431 0.264813
vt 0.611396 0.339444
vt 0.646308 0.345460
vt 0.621960 0.419809
vt 0.617859 0.419103
vn -0.543245 -0.138934 -0.827999
vn -0.543245 -0.138934 -0.827999
vn -0.519524 -0.255519 -0.815356
vn -0.518965 -0.257847 -0.814979
vn -0.355267 -0.845006 -0.399688
vn -0.382873 -0.794089 -0.472049
vn 0.048330 -0.903560 0.425727
vn 0.052192 -0.899930 0.432898
vn 0.183577 -0.728609 0.659870
vn 0.183577 -0.728609 0.659870
s 1
g pCube18 polySurface12
usemtl lambert2SG
f 53/53/53 54/54/54 56/55/55 55/56/56
f 55/56/56 56/55/55 58/57/57 57/58/58
f 61/59/59 62/60/60 60/61/61 59/62/62
f 57/58/58 58/57/57 62/60/60 61/59/59
g default
v 0.287339 -0.017283 0.179666
v 0.355691 -0.017283 0.217915
v 0.220926 0.292592 0.275906
v 0.345876 0.287211 0.345827
v 0.159297 0.472465 0.390227
v 0.284247 0.467085 0.460148
v 0.122986 0.653204 0.573137
v 0.132102 0.652812 0.578239
v 0.147914 0.551725 0.462669
v 0.225521 0.548384 0.506097
vt 0.896985 0.023449
vt 0.929071 0.021374
vt 0.959792 0.153481
vt 0.901267 0.159337
vt 0.966933 0.244272
vt 0.908409 0.250128
vt 0.921894 0.292351
vt 0.958243 0.288714
vt 0.943852 0.351785
vt 0.939583 0.352212
vn -0.464221 -0.353844 0.811969
vn -0.464221 -0.353844 0.811969
vn -0.444299 -0.469770 0.762833
vn -0.444471 -0.468948 0.763238
vn -0.409869 -0.600949 0.686198
vn -0.409495 -0.602063 0.685444
vn -0.381942 -0.675675 0.630542
vn -0.382952 -0.673235 0.632536
vn -0.359244 -0.726254 0.586087
vn -0.359244 -0.726254 0.586088
s 1
g pCube18 polySurface4
usemtl lambert2SG
f 63/63/63 64/64/64 66/65/65 65/66/66
f 65/66/66 66/65/65 68/67/67 67/68/68
f 71/69/69 72/70/70 70/71/71 69/72/72
f 67/68/68 68/67/67 72/70/70 71/69/69
g default
v 0.867773 -0.017283 0.155496
v 0.868124 -0.017283 0.074598
v 0.970246 0.406364 0.176377
v 0.970888 0.401235 0.028493
v 1.114334 0.664457 0.168052
v 1.114975 0.659328 0.020168
v 1.327004 0.929323 0.091159
v 1.327051 0.928949 0.080370
v 1.194509 0.779715 0.136352
v 1.194907 0.776530 0.044502
vt 0.137848 0.027618
vt 0.185914 0.029045
vt 0.205973 0.285884
vt 0.118018 0.286236
vt 0.206677 0.461652
vt 0.118721 0.462004
vt 0.135720 0.545855
vt 0.190349 0.545636
vt 0.166721 0.665110
vt 0.160304 0.665136
vn 0.971587 -0.236491 0.009517
vn 0.971587 -0.236491 0.009517
vn 0.932792 -0.360104 0.015015
vn 0.932684 -0.360383 0.015027
vn 0.861423 -0.507441 0.021334
vn 0.861423 -0.507441 0.021334
vn 0.801941 -0.596914 0.024179
vn 0.801941 -0.596914 0.024179
vn 0.752270 -0.658338 0.026093
vn 0.752270 -0.658338 0.026093
s 1
g pCube18 polySurface11
usemtl lambert2SG
f 73/73/73 74/74/74 76/75/75 75/76/76
f 75/76/76 76/75/75 78/77/77 77/78/78
f 81/79/79 82/80/80 80/81/81 79/82/82
f 77/78/78 78/77/77 82/80/80 81/79/79
g default
v 0.345818 -0.017283 -0.229250
v 0.254861 -0.017283 -0.183623
v 0.304804 0.244990 -0.384666
v 0.298168 0.245761 -0.381337
v 0.329564 0.108308 -0.285975
v 0.273070 0.114889 -0.257636
vt 0.757089 0.092270
vt 0.791465 0.094923
vt 0.749776 0.184335
vt 0.745738 0.184024
vt 0.761714 0.017122
vt 0.816919 0.016149
vn -0.424003 -0.468931 -0.774807
vn -0.424201 -0.453387 -0.783897
vn -0.418142 -0.580340 -0.698830
vn -0.418142 -0.580340 -0.698830
vn -0.423992 -0.407114 -0.809005
vn -0.423992 -0.407114 -0.809005
s 1
g pCube18 polySurface5
usemtl lambert2SG
f 87/83/83 88/84/84 86/85/85 85/86/86
f 83/87/87 84/88/88 88/84/84 87/83/83
g default
v 0.229042 -0.017283 0.047321
v 0.171198 -0.017283 -0.009305
v 0.210159 0.414071 0.114518
v 0.104419 0.414071 0.011004
v 0.227843 0.708696 0.096454
v 0.122102 0.708696 -0.007060
v 0.237436 1.039713 -0.011394
v 0.229722 1.039713 -0.018946
v 0.225447 0.847606 0.058827
v 0.159771 0.847606 -0.005465
vt 0.137723 0.028346
vt 0.185748 0.028128
vt 0.206805 0.286522
vt 0.119014 0.286921
vt 0.207602 0.461962
vt 0.119811 0.462361
vt 0.136823 0.546046
vt 0.191350 0.545798
vt 0.167830 0.665062
vt 0.161426 0.665091
vn 0.692600 0.140534 -0.707500
vn 0.692600 0.140534 -0.707500
vn 0.699177 0.032283 -0.714219
vn 0.699177 0.032283 -0.714219
vn 0.695364 -0.109129 -0.710324
vn 0.695364 -0.109129 -0.710324
vn 0.683155 -0.215181 -0.697852
vn 0.683155 -0.215181 -0.697852
vn 0.669137 -0.291616 -0.683532
vn 0.669137 -0.291616 -0.683532
s 1
g pCube18 polySurface7
usemtl lambert2SG
f 89/89/89 90/90/90 92/91/91 91/92/92
f 91/92/92 92/91/91 94/93/93 93/94/94
f 97/95/95 98/96/96 96/97/97 95/98/98
f 93/94/94 94/93/93 98/96/96 97/95/95
g default
v 0.722923 -0.017283 -0.235771
v 0.678342 -0.017283 -0.303262
v 0.800804 0.500350 -0.225067
v 0.719309 0.506113 -0.348442
v 0.871140 0.733091 -0.263262
v 0.809893 0.759934 -0.395264
v 1.121531 0.508952 -0.501910
v 1.117063 0.510910 -0.511540
v 1.017825 0.667089 -0.376170
v 0.979784 0.683761 -0.458156
vt 0.527207 0.023144
vt 0.570802 0.023339
vt 0.577682 0.307264
vt 0.498001 0.303822
vt 0.571107 0.454549
vt 0.493446 0.436397
vt 0.484297 0.541922
vt 0.532533 0.553197
vt 0.483837 0.665493
vt 0.478171 0.664169
vn 0.827518 -0.112687 -0.550015
vn 0.827518 -0.112687 -0.550015
vn 0.821775 -0.208570 -0.530269
vn 0.821821 -0.208112 -0.530376
vn 0.458587 -0.786067 -0.414484
vn 0.535261 -0.721414 -0.439382
vn -0.512402 -0.856388 0.063597
vn -0.512402 -0.856388 0.063597
vn -0.733413 -0.646943 0.208735
vn -0.733413 -0.646943 0.208735
s 1
g pCube18 polySurface10
usemtl lambert2SG
f 99/99/99 100/100/100 102/101/101 101/102/102
f 101/102/102 102/101/101 104/103/103 103/104/104
f 107/105/105 108/106/106 106/107/107 105/108/108
f 103/104/104 104/103/103 108/106/106 107/105/105
g default
v 0.432766 -0.017283 0.253749
v 0.408621 -0.017283 0.154895
v 0.593417 0.244990 0.248505
v 0.591656 0.245761 0.241293
v 0.491689 0.108308 0.250583
v 0.476692 0.114889 0.189185
vt 0.757089 0.092270
vt 0.791465 0.094923
vt 0.749776 0.184335
vt 0.745738 0.184024
vt 0.761714 0.017122
vt 0.816918 0.016149
vn 0.849968 -0.468931 -0.240121
vn 0.858872 -0.453386 -0.238283
vn 0.774603 -0.580340 -0.251388
vn 0.774603 -0.580340 -0.251388
vn 0.883299 -0.407114 -0.232468
vn 0.883299 -0.407114 -0.232468
s 1
g pCube18 polySurface3
usemtl lambert2SG
f 113/109/109 114/110/110 112/111/111 111/112/112
f 109/113/113 110/114/114 114/110/110 113/109/109
g default
v 0.683556 -0.017283 -0.194828
v 0.754428 -0.017283 -0.233837
v 0.715108 0.235668 -0.095123
v 0.844664 0.232750 -0.166432
v 0.792409 0.382451 0.026759
v 0.921966 0.379535 -0.044550
v 0.962966 0.533086 0.175256
v 0.972418 0.532874 0.170053
v 0.859078 0.448002 0.081423
v 0.939545 0.446190 0.037133
vt 0.235487 0.023524
vt 0.265948 0.024127
vt 0.281464 0.126231
vt 0.225760 0.126147
vt 0.283627 0.203726
vt 0.227922 0.203642
vt 0.239443 0.242769
vt 0.274041 0.242821
vt 0.260018 0.302219
vt 0.255954 0.302213
vn 0.442315 -0.377402 0.813588
vn 0.442315 -0.377402 0.813588
vn 0.391891 -0.557125 0.732143
vn 0.394106 -0.550714 0.735796
vn 0.322566 -0.719137 0.615462
vn 0.323097 -0.718106 0.616386
vn 0.280055 -0.792859 0.541242
vn 0.279482 -0.793747 0.540237
vn 0.248258 -0.838345 0.485331
vn 0.248258 -0.838345 0.485331
s 1
g pCube18 polySurface15
usemtl lambert2SG
f 115/115/115 116/116/116 118/117/117 117/118/118
f 117/118/118 118/117/117 120/119/119 119/120/120
f 123/121/121 124/122/122 122/123/123 121/124/124
f 119/120/120 120/119/119 124/122/122 123/121/121
g default
v 0.130302 -0.017283 -0.288479
v 0.144864 -0.017283 -0.208914
v 0.062848 0.500350 -0.328850
v 0.089468 0.506113 -0.183405
v -0.052559 0.842332 -0.321278
v -0.025939 0.848095 -0.175832
v -0.381566 1.058892 -0.199860
v -0.379624 1.059313 -0.189249
v -0.180792 0.983844 -0.274894
v -0.164258 0.987424 -0.184558
vt 0.337782 0.020633
vt 0.373088 0.020633
vt 0.385119 0.251303
vt 0.320746 0.250497
vt 0.383035 0.408244
vt 0.318781 0.407614
vt 0.329895 0.492852
vt 0.369803 0.493243
vt 0.352509 0.590829
vt 0.347720 0.590829
vn -0.976880 -0.112687 0.181678
vn -0.976880 -0.112687 0.181678
vn -0.959747 -0.212837 0.183266
vn -0.959800 -0.212600 0.183265
vn -0.883765 -0.432390 0.178881
vn -0.883765 -0.432390 0.178881
vn -0.608614 -0.780599 0.142317
vn -0.608614 -0.780599 0.142318
vn -0.317051 -0.943597 0.095413
vn -0.317052 -0.943597 0.095413
s 1
g pCube18 polySurface6
usemtl lambert2SG
f 125/125/125 126/126/126 128/127/127 127/128/128
f 127/128/128 128/127/127 130/129/129 129/130/130
f 133/131/131 134/132/132 132/133/133 131/134/134
f 129/130/130 130/129/129 134/132/132 133/131/131
g default
v 0.014256 -0.017283 -0.164213
v 0.061566 -0.017283 -0.147903
v -0.044807 0.196428 -0.123715
v 0.041678 0.198741 -0.093900
v -0.108469 0.333680 -0.027326
v -0.021984 0.335991 0.002488
v -0.241263 0.420592 0.282763
v -0.234954 0.420762 0.284939
v -0.160685 0.390474 0.093201
v -0.106969 0.391910 0.111719
vt 0.847250 0.021227
vt 0.861452 0.021858
vt 0.858292 0.085291
vt 0.832357 0.083503
vt 0.847654 0.135132
vt 0.821719 0.133345
vt 0.816478 0.173661
vt 0.832587 0.174771
vt 0.810449 0.232398
vt 0.808557 0.232267
vn -0.310872 -0.258258 0.914692
vn -0.310872 -0.258258 0.914692
vn -0.281605 -0.449056 0.847966
vn -0.276336 -0.475419 0.835234
vn -0.200637 -0.742110 0.639545
vn -0.187920 -0.773654 0.605100
vn -0.074990 -0.953627 0.291501
vn -0.083767 -0.944959 0.316284
vn -0.024168 -0.988864 0.146845
vn -0.024168 -0.988864 0.146845
s 1
g pCube18 polySurface16
usemtl lambert2SG
f 135/135/135 136/136/136 138/137/137 137/138/138
f 137/138/138 138/137/137 140/139/139 139/140/140
f 143/141/141 144/142/142 142/143/143 141/144/144
f 139/140/140 140/139/139 144/142/142 143/141/141
g default
v 0.563628 -0.017283 -0.172211
v 0.513761 -0.017283 -0.168028
v 0.601308 0.207138 -0.233109
v 0.510149 0.209451 -0.225463
v 0.620627 0.344390 -0.346998
v 0.529467 0.346701 -0.339350
v 0.616898 0.431302 -0.684305
v 0.610247 0.431472 -0.683747
v 0.619727 0.401184 -0.478347
v 0.563108 0.402620 -0.473597
vt 0.708678 0.020730
vt 0.717059 0.020428
vt 0.718271 0.059614
vt 0.702935 0.059791
vt 0.714375 0.089426
vt 0.699040 0.089604
vt 0.697868 0.113559
vt 0.707393 0.113449
vt 0.697104 0.148384
vt 0.695985 0.148397
vn -0.085020 -0.246779 -0.965335
vn -0.085020 -0.246779 -0.965335
vn -0.084975 -0.439157 -0.894383
vn -0.084667 -0.465885 -0.880785
vn -0.074699 -0.742110 -0.666103
vn -0.072425 -0.773654 -0.629456
vn -0.049105 -0.953627 -0.296960
vn -0.051083 -0.944959 -0.323177
vn -0.037188 -0.988864 -0.144100
vn -0.037188 -0.988864 -0.144100
s 1
g pCube18 polySurface13
usemtl lambert2SG
f 145/145/145 146/146/146 148/147/147 147/148/148
f 147/148/148 148/147/147 150/149/149 149/150/150
f 153/151/151 154/152/152 152/153/153 151/154/154
f 149/150/150 150/149/149 154/152/152 153/151/151
