# This file uses centimeters as units for non-parametric coordinates.

mtllib single plant variation5.mtl
g default
v 0.683556 -0.017283 -0.194828
v 0.754428 -0.017283 -0.233837
v 0.715108 0.235668 -0.095123
v 0.844664 0.232750 -0.166432
v 0.792409 0.382451 0.026759
v 0.921966 0.379535 -0.044550
v 0.962966 0.533086 0.175256
v 0.972418 0.532874 0.170053
v 0.859078 0.448002 0.081423
v 0.939545 0.446190 0.037133
vt 0.235487 0.023524
vt 0.265948 0.024127
vt 0.281464 0.126231
vt 0.225760 0.126147
vt 0.283627 0.203726
vt 0.227922 0.203642
vt 0.239443 0.242769
vt 0.274041 0.242821
vt 0.260018 0.302219
vt 0.255954 0.302213
vn 0.442315 -0.377402 0.813588
vn 0.442315 -0.377402 0.813588
vn 0.391891 -0.557125 0.732143
vn 0.394106 -0.550714 0.735796
vn 0.322566 -0.719137 0.615462
vn 0.323097 -0.718106 0.616386
vn 0.280055 -0.792859 0.541242
vn 0.279482 -0.793747 0.540237
vn 0.248258 -0.838345 0.485331
vn 0.248258 -0.838345 0.485331
s 1
g polySurface15 pCube18
usemtl lambert2SG
f 1/1/1 2/2/2 4/3/3 3/4/4
f 3/4/4 4/3/3 6/5/5 5/6/6
f 9/7/7 10/8/8 8/9/9 7/10/10
f 5/6/6 6/5/5 10/8/8 9/7/7
