# This file uses centimeters as units for non-parametric coordinates.

mtllib single plant variation 1.mtl
g default
v 0.501507 -0.017283 0.120996
v 0.549728 -0.017283 0.056056
v 0.518029 0.303801 0.197853
v 0.606179 0.307251 0.079141
v 0.577939 0.443142 0.250928
v 0.681107 0.459213 0.148303
v 0.887719 0.308951 0.404825
v 0.895246 0.310123 0.397338
v 0.734133 0.403627 0.350265
v 0.798211 0.413609 0.286525
vt 0.063592 0.028090
vt 0.101203 0.027804
vt 0.109399 0.181135
vt 0.040632 0.180080
vt 0.104914 0.266114
vt 0.037792 0.254748
vt 0.039917 0.342737
vt 0.081607 0.349796
vt 0.058253 0.430179
vt 0.053356 0.429349
vn 0.791380 -0.179890 0.584258
vn 0.791380 -0.179890 0.584258
vn 0.752851 -0.327134 0.571138
vn 0.750379 -0.334545 0.570097
vn 0.381326 -0.901493 0.204699
vn 0.427902 -0.867595 0.253337
vn -0.148016 -0.943479 -0.296544
vn -0.157661 -0.939034 -0.305545
vn -0.337636 -0.817049 -0.467367
vn -0.337636 -0.817049 -0.467368
s 1
g polySurface17 pCube18
usemtl lambert2SG
f 1/1/1 2/2/2 4/3/3 3/4/4
f 3/4/4 4/3/3 6/5/5 5/6/6
f 9/7/7 10/8/8 8/9/9 7/10/10
f 5/6/6 6/5/5 10/8/8 9/7/7
