# This file uses centimeters as units for non-parametric coordinates.

mtllib single plant variation2.mtl
g default
v 0.325825 -0.017283 0.045076
v 0.406773 -0.017283 0.045076
v 0.292312 0.503775 -0.016151
v 0.440286 0.503775 -0.016151
v 0.292312 0.863898 0.009128
v 0.440286 0.863898 0.009128
v 0.360901 1.157834 0.289812
v 0.371697 1.157834 0.289812
v 0.320346 1.033689 0.104027
v 0.412252 1.033689 0.104027
vt 0.337782 0.020633
vt 0.373088 0.020633
vt 0.385119 0.251303
vt 0.320746 0.250497
vt 0.383035 0.408244
vt 0.318781 0.407614
vt 0.329895 0.492852
vt 0.369803 0.493243
vt 0.352509 0.590829
vt 0.347720 0.590829
vn 0.000000 0.116703 0.993167
vn 0.000000 0.116703 0.993167
vn 0.000000 0.026983 0.999636
vn 0.000000 0.026983 0.999636
vn 0.000000 -0.192515 0.981294
vn 0.000000 -0.192515 0.981294
vn 0.000000 -0.599431 0.800426
vn 0.000000 -0.599431 0.800426
vn 0.000000 -0.831454 0.555593
vn 0.000000 -0.831454 0.555593
s 1
g polySurface14 pCube18
usemtl lambert2SG
f 1/1/1 2/2/2 4/3/3 3/4/4
f 3/4/4 4/3/3 6/5/5 5/6/6
f 9/7/7 10/8/8 8/9/9 7/10/10
f 5/6/6 6/5/5 10/8/8 9/7/7
