# This file uses centimeters as units for non-parametric coordinates.

mtllib single plant variation3.mtl
g default
v 0.867773 -0.017283 0.155496
v 0.868124 -0.017283 0.074598
v 0.970246 0.406364 0.176377
v 0.970888 0.401235 0.028493
v 1.114334 0.664457 0.168052
v 1.114975 0.659328 0.020168
v 1.327004 0.929323 0.091159
v 1.327051 0.928949 0.080370
v 1.194509 0.779715 0.136352
v 1.194907 0.776530 0.044502
vt 0.137848 0.027618
vt 0.185914 0.029045
vt 0.205973 0.285884
vt 0.118018 0.286236
vt 0.206677 0.461652
vt 0.118721 0.462004
vt 0.135720 0.545855
vt 0.190349 0.545636
vt 0.166721 0.665110
vt 0.160304 0.665136
vn 0.971587 -0.236491 0.009517
vn 0.971587 -0.236491 0.009517
vn 0.932792 -0.360104 0.015015
vn 0.932684 -0.360383 0.015027
vn 0.861423 -0.507441 0.021334
vn 0.861423 -0.507441 0.021334
vn 0.801941 -0.596914 0.024179
vn 0.801941 -0.596914 0.024179
vn 0.752270 -0.658338 0.026093
vn 0.752270 -0.658338 0.026093
s 1
g polySurface11 pCube18
usemtl lambert2SG
f 1/1/1 2/2/2 4/3/3 3/4/4
f 3/4/4 4/3/3 6/5/5 5/6/6
f 9/7/7 10/8/8 8/9/9 7/10/10
f 5/6/6 6/5/5 10/8/8 9/7/7
