# This file uses centimeters as units for non-parametric coordinates.

mtllib single plant variation4.mtl
g default
v 0.021642 -0.017283 -0.322616
v 0.087852 -0.017283 -0.245341
v -0.119302 0.244990 -0.245344
v -0.114471 0.245761 -0.239706
v -0.029491 0.108308 -0.293166
v 0.011632 0.114889 -0.245170
vt 0.757089 0.092270
vt 0.791465 0.094923
vt 0.749776 0.184335
vt 0.745738 0.184025
vt 0.761714 0.017122
vt 0.816918 0.016149
vn -0.649736 -0.468931 0.598287
vn -0.658510 -0.453386 0.600671
vn -0.577412 -0.580340 0.574283
vn -0.577412 -0.580340 0.574283
vn -0.682928 -0.407114 0.606521
vn -0.682928 -0.407114 0.606521
s 1
g polySurface1 pCube18
usemtl lambert2SG
f 5/1/1 6/2/2 4/3/3 3/4/4
f 1/5/5 2/6/6 6/2/2 5/1/1
